<svg version="1.1" id="Layer_1" xmlns="http://www.w3.org/2000/svg" xmlns:xlink="http://www.w3.org/1999/xlink" x="0px" y="0px"
	 width="100%" viewBox="0 0 1024 1024" enable-background="new 0 0 1024 1024" xml:space="preserve">
<path fill="#000000" opacity="1.000000" stroke="none" 
	d="
M535.241089,666.758911 
	C477.246216,609.019165 419.490875,551.539917 361.755951,494.040131 
	C327.640656,460.063812 293.568024,426.044708 259.456177,392.064911 
	C239.744278,372.429260 220.059525,352.765198 200.190384,333.289581 
	C197.023376,330.185303 196.629074,328.307343 199.830582,324.878601 
	C218.933121,304.420074 237.865417,283.801056 256.690582,263.086609 
	C260.018646,259.424530 262.019806,261.415802 264.398834,263.789459 
	C282.682709,282.031982 300.933167,300.308167 319.266785,318.500549 
	C376.633423,375.425140 434.048950,432.300415 491.411804,489.228790 
	C524.761780,522.326172 558.048889,555.486938 591.359619,588.623779 
	C596.193848,593.432861 596.238159,593.496521 600.906616,588.420959 
	C635.984436,550.284485 671.048828,512.135681 706.087158,473.962921 
	C710.760193,468.871796 710.683655,468.229797 705.877869,463.421997 
	C701.401611,458.943970 696.778442,454.606293 692.439636,449.999847 
	C689.912964,447.317261 688.130981,447.280365 685.582947,450.075378 
	C672.001831,464.972626 658.249878,479.713989 644.592651,494.542114 
	C630.258545,510.105011 615.918457,525.663025 601.701355,541.332397 
	C599.466125,543.796021 598.023499,543.861877 595.701294,541.498291 
	C584.840271,530.443909 573.926453,519.437622 562.829346,508.621613 
	C559.913025,505.779114 560.359070,504.023987 562.904602,501.281738 
	C600.310791,460.984497 637.622009,420.598999 674.953186,380.232147 
	C684.115784,370.324463 693.273560,360.412292 702.425293,350.494598 
	C706.957275,345.583252 706.985413,345.538635 711.926697,350.458557 
	C737.078857,375.501862 762.206055,400.570251 787.351074,425.620728 
	C800.337219,438.558014 813.237061,451.584991 826.412537,464.326782 
	C829.701843,467.507782 829.737000,469.555511 826.698608,472.862427 
	C800.888977,500.953522 775.166382,529.125183 749.519897,557.365417 
	C723.312561,586.223389 697.221008,615.186584 671.078247,644.103149 
	C647.394409,670.299927 623.662903,696.454102 600.080200,722.741638 
	C596.860229,726.330994 594.724915,726.353149 591.310852,722.891724 
	C572.822998,704.147095 554.118835,685.615662 535.241089,666.758911 
z"/>
<path fill="#000000" opacity="1.000000" stroke="none" 
	d="
M580.107727,428.092804 
	C559.813538,450.154816 539.744141,471.943207 519.763367,493.635468 
	C517.354187,493.688538 516.426758,491.873718 515.197998,490.635803 
	C497.598419,472.904999 480.096649,455.076447 462.406494,437.436768 
	C459.237274,434.276611 459.138794,432.304077 462.289429,428.907806 
	C513.256592,373.966766 564.083740,318.895752 614.937256,263.849365 
	C619.234131,259.198212 619.250061,259.148102 623.803467,263.642792 
	C641.105408,280.721649 658.269409,297.942963 675.761414,314.824554 
	C679.552856,318.483765 679.505249,320.833984 676.063965,324.484161 
	C661.557495,339.871338 647.235229,355.432343 632.872314,370.954529 
	C615.345032,389.896454 597.844604,408.863190 580.107727,428.092804 
z"/>
<path fill="#000000" opacity="1.000000" stroke="none" 
	d="
M425.146240,579.835510 
	C433.378510,587.824524 433.451691,587.891235 426.152222,595.897278 
	C398.447327,626.283875 370.673401,656.607544 342.963562,686.989746 
	C333.652130,697.199158 324.267303,707.352722 315.302246,717.861267 
	C311.961212,721.777588 309.811859,721.254150 306.534363,718.090759 
	C288.684601,700.862061 270.687836,683.785828 252.772308,666.625122 
	C245.740921,659.890076 245.744797,659.822632 252.201111,652.798218 
	C290.282471,611.366028 328.411987,569.977905 366.408142,528.467773 
	C369.258881,525.353333 370.897064,525.874207 373.538879,528.524170 
	C390.581604,545.619629 407.753937,562.585876 425.146240,579.835510 
z"/>
</svg>